<svg xmlns="http://www.w3.org/2000/svg" xmlns:xlink="http://www.w3.org/1999/xlink" width="350" zoomAndPan="magnify" viewBox="0 0 262.5 262.500001" height="350" preserveAspectRatio="xMidYMid meet" version="1.0"><defs><g/></defs><g fill="#e4e2dd" fill-opacity="1"><g transform="translate(63.943831, 139.422374)"><g><path d="M 39.578125 -37.9375 C 39.578125 -35.476562 38.960938 -33.582031 37.734375 -32.25 C 36.503906 -30.925781 34.65625 -29.941406 32.1875 -29.296875 C 33.363281 -28.398438 34.285156 -27.359375 34.953125 -26.171875 C 35.617188 -24.984375 35.953125 -23.722656 35.953125 -22.390625 C 35.953125 -19.003906 34.671875 -16.441406 32.109375 -14.703125 C 29.546875 -12.972656 26.347656 -12.109375 22.515625 -12.109375 L 17.90625 -12.109375 C 15.363281 -12.109375 14.09375 -11.519531 14.09375 -10.34375 C 14.09375 -9.78125 14.375 -9.328125 14.9375 -8.984375 C 15.507812 -8.640625 16.5 -8.46875 17.90625 -8.46875 L 28.8125 -8.46875 C 32.351562 -8.46875 35.03125 -7.539062 36.84375 -5.6875 C 38.664062 -3.832031 39.578125 -1.351562 39.578125 1.75 C 39.578125 4.050781 38.972656 6.03125 37.765625 7.6875 C 36.554688 9.34375 34.921875 10.59375 32.859375 11.4375 C 30.804688 12.28125 28.566406 12.703125 26.140625 12.703125 L 8.34375 12.703125 C 6.894531 12.703125 5.554688 12.359375 4.328125 11.671875 C 3.097656 10.992188 2.117188 10.054688 1.390625 8.859375 C 0.660156 7.671875 0.296875 6.351562 0.296875 4.90625 C 0.296875 3.332031 0.78125 1.910156 1.75 0.640625 C 2.71875 -0.628906 3.929688 -1.585938 5.390625 -2.234375 C 4.421875 -2.921875 3.648438 -3.75 3.078125 -4.71875 C 2.515625 -5.6875 2.234375 -6.734375 2.234375 -7.859375 C 2.234375 -9.441406 2.816406 -10.867188 3.984375 -12.140625 C 5.160156 -13.410156 6.613281 -14.265625 8.34375 -14.703125 C 6.769531 -15.710938 5.519531 -16.875 4.59375 -18.1875 C 3.664062 -19.5 3.203125 -20.878906 3.203125 -22.328125 C 3.203125 -26.035156 4.703125 -28.6875 7.703125 -30.28125 C 10.710938 -31.875 14.703125 -32.671875 19.671875 -32.671875 C 21.847656 -32.671875 23.601562 -32.550781 24.9375 -32.3125 C 26.90625 -33.5625 28.179688 -34.703125 28.765625 -35.734375 C 29.359375 -36.765625 29.65625 -37.5 29.65625 -37.9375 Z M 19.546875 -26.390625 C 18.210938 -26.390625 17.125 -26.046875 16.28125 -25.359375 C 15.4375 -24.671875 15.015625 -23.679688 15.015625 -22.390625 C 15.015625 -21.054688 15.40625 -20.054688 16.1875 -19.390625 C 16.976562 -18.722656 18.097656 -18.390625 19.546875 -18.390625 C 20.992188 -18.390625 22.128906 -18.722656 22.953125 -19.390625 C 23.785156 -20.054688 24.203125 -21.054688 24.203125 -22.390625 C 24.203125 -23.722656 23.785156 -24.722656 22.953125 -25.390625 C 22.128906 -26.054688 20.992188 -26.390625 19.546875 -26.390625 Z M 14.890625 0 C 13.960938 0 13.203125 0.25 12.609375 0.75 C 12.023438 1.257812 11.734375 1.976562 11.734375 2.90625 C 11.734375 3.832031 12.035156 4.578125 12.640625 5.140625 C 13.253906 5.703125 14.003906 5.984375 14.890625 5.984375 L 24.328125 5.984375 C 25.210938 5.984375 25.96875 5.710938 26.59375 5.171875 C 27.21875 4.628906 27.53125 3.894531 27.53125 2.96875 C 27.53125 2.039062 27.226562 1.3125 26.625 0.78125 C 26.019531 0.257812 25.253906 0 24.328125 0 Z M 14.890625 0 "/></g></g></g><g fill="#e4e2dd" fill-opacity="1"><g transform="translate(100.854399, 139.422374)"><g><path d="M 23.0625 -32.734375 C 23.988281 -32.734375 24.8125 -32.625 25.53125 -32.40625 C 26.257812 -32.1875 26.625 -32.054688 26.625 -32.015625 L 26.625 -21.90625 L 22.75 -21.90625 C 20.25 -21.90625 18.441406 -21.257812 17.328125 -19.96875 C 16.222656 -18.675781 15.671875 -16.757812 15.671875 -14.21875 L 15.671875 0 L 3.625 0 L 3.625 -31.953125 L 13.5 -31.953125 L 14.28125 -27.109375 C 15.007812 -28.960938 16.160156 -30.363281 17.734375 -31.3125 C 19.304688 -32.257812 21.082031 -32.734375 23.0625 -32.734375 Z M 23.0625 -32.734375 "/></g></g></g><g fill="#e4e2dd" fill-opacity="1"><g transform="translate(124.271218, 139.422374)"><g><path d="M 4.046875 -35.703125 L 4.046875 -43.875 L 16.09375 -43.875 L 16.09375 -35.703125 Z M 4.046875 0 L 4.046875 -31.953125 L 16.09375 -31.953125 L 16.09375 0 Z M 4.046875 0 "/></g></g></g><g fill="#e4e2dd" fill-opacity="1"><g transform="translate(140.971423, 139.422374)"><g><path d="M 26.875 0 L 25.84375 -4.53125 C 23.5 -1.03125 20.109375 0.71875 15.671875 0.71875 C 11.359375 0.71875 8.03125 -0.691406 5.6875 -3.515625 C 3.34375 -6.335938 2.171875 -10.507812 2.171875 -16.03125 C 2.171875 -21.519531 3.34375 -25.664062 5.6875 -28.46875 C 8.03125 -31.269531 11.359375 -32.671875 15.671875 -32.671875 C 19.347656 -32.671875 22.332031 -31.441406 24.625 -28.984375 L 24.625 -43.875 L 36.671875 -43.875 L 36.671875 0 Z M 19.421875 -23.78125 C 15.953125 -23.78125 14.21875 -21.703125 14.21875 -17.546875 L 14.21875 -14.34375 C 14.21875 -10.226562 15.953125 -8.171875 19.421875 -8.171875 C 21.203125 -8.171875 22.535156 -8.796875 23.421875 -10.046875 C 24.304688 -11.296875 24.75 -12.929688 24.75 -14.953125 L 24.75 -16.9375 C 24.75 -18.957031 24.304688 -20.601562 23.421875 -21.875 C 22.535156 -23.144531 21.203125 -23.78125 19.421875 -23.78125 Z M 19.421875 -23.78125 "/></g></g></g><g fill="#e4e2dd" fill-opacity="1"><g transform="translate(177.881995, 139.422374)"><g><path d="M 3.6875 0 L 3.6875 -12.046875 L 16.515625 -12.046875 L 16.515625 0 Z M 3.6875 0 "/></g></g></g><g fill="#e4e2dd" fill-opacity="1"><g transform="translate(147.903792, 150.499718)"><g><path d="M 3.75 -5.671875 C 2.03125 -5.671875 0.515625 -4.359375 0.515625 -2.1875 C 0.515625 -0.671875 1.453125 0.109375 2.84375 0.109375 C 4.234375 0.109375 5.296875 -0.578125 5.671875 -1.90625 L 5.6875 -1.984375 L 4.234375 -1.984375 L 4.203125 -1.90625 C 3.984375 -1.296875 3.5625 -0.953125 2.984375 -0.953125 C 2.46875 -0.953125 2.03125 -1.3125 2.03125 -2.28125 C 2.03125 -3.8125 2.78125 -4.609375 3.625 -4.609375 C 4.21875 -4.609375 4.53125 -4.328125 4.546875 -3.734375 L 4.546875 -3.65625 L 6 -3.65625 L 6 -3.734375 C 6.09375 -4.828125 5.34375 -5.671875 3.75 -5.671875 Z M 3.75 -5.671875 "/></g></g></g><g fill="#e4e2dd" fill-opacity="1"><g transform="translate(153.833684, 150.499718)"><g><path d="M 3.765625 -5.671875 C 1.953125 -5.671875 0.53125 -4.390625 0.53125 -2.296875 C 0.53125 -0.921875 1.484375 0.109375 3.1875 0.109375 C 4.984375 0.109375 6.421875 -1.171875 6.421875 -3.265625 C 6.421875 -4.640625 5.46875 -5.671875 3.765625 -5.671875 Z M 3.234375 -0.953125 C 2.453125 -0.953125 2.0625 -1.53125 2.0625 -2.34375 C 2.0625 -3.375 2.59375 -4.609375 3.71875 -4.609375 C 4.484375 -4.609375 4.890625 -4.046875 4.890625 -3.21875 C 4.890625 -2.1875 4.359375 -0.953125 3.234375 -0.953125 Z M 3.234375 -0.953125 "/></g></g></g><g fill="#e4e2dd" fill-opacity="1"><g transform="translate(160.093923, 150.499718)"><g><path d="M 3.0625 -5.671875 C 1.84375 -5.671875 0.703125 -4.96875 0.703125 -3.703125 C 0.703125 -2.875 1.328125 -2.46875 2.40625 -2.203125 C 2.984375 -2.046875 3.203125 -1.796875 3.203125 -1.546875 C 3.203125 -1.1875 2.84375 -0.953125 2.40625 -0.953125 C 1.96875 -0.953125 1.578125 -1.171875 1.578125 -1.703125 L 0.125 -1.703125 C -0.015625 -0.453125 0.90625 0.109375 2.25 0.109375 C 3.546875 0.109375 4.765625 -0.546875 4.765625 -1.84375 C 4.765625 -2.546875 4.328125 -3.078125 3.3125 -3.328125 C 2.53125 -3.515625 2.265625 -3.71875 2.265625 -4.015625 C 2.265625 -4.40625 2.546875 -4.609375 2.921875 -4.609375 C 3.40625 -4.609375 3.59375 -4.3125 3.578125 -3.84375 L 5.015625 -3.84375 C 5.078125 -4.875 4.53125 -5.671875 3.0625 -5.671875 Z M 3.0625 -5.671875 "/></g></g></g><g fill="#e4e2dd" fill-opacity="1"><g transform="translate(164.895798, 150.499718)"><g><path d="M 7.515625 -5.5625 L 5.09375 -5.5625 L 3.640625 -1.5625 L 3.515625 -5.5625 L 1.15625 -5.5625 L 0.171875 0 L 1.625 0 L 2.328125 -4.078125 L 2.5 0 L 4.1875 0 L 5.8125 -4.078125 L 5.078125 0 L 6.53125 0 Z M 7.515625 -5.5625 "/></g></g></g><g fill="#e4e2dd" fill-opacity="1"><g transform="translate(172.01816, 150.499718)"><g><path d="M 2.40625 -4.4375 L 5.140625 -4.4375 L 5.34375 -5.5625 L 1.15625 -5.5625 L 0.171875 0 L 4.4375 0 L 4.640625 -1.125 L 1.828125 -1.125 L 2.015625 -2.21875 L 4.59375 -2.21875 L 4.796875 -3.359375 L 2.21875 -3.359375 Z M 2.40625 -4.4375 "/></g></g></g><g fill="#e4e2dd" fill-opacity="1"><g transform="translate(176.828093, 150.499718)"><g><path d="M 5.578125 -4.4375 L 5.78125 -5.5625 L 0.71875 -5.5625 L 0.515625 -4.4375 L 2.328125 -4.4375 L 1.546875 0 L 2.984375 0 L 3.765625 -4.4375 Z M 5.578125 -4.4375 "/></g></g></g><g fill="#e4e2dd" fill-opacity="1"><g transform="translate(181.670262, 150.499718)"><g><path d="M 1.625 0 L 2.609375 -5.5625 L 1.15625 -5.5625 L 0.171875 0 Z M 1.625 0 "/></g></g></g><g fill="#e4e2dd" fill-opacity="1"><g transform="translate(183.885768, 150.499718)"><g><path d="M 3.75 -5.671875 C 2.03125 -5.671875 0.515625 -4.359375 0.515625 -2.1875 C 0.515625 -0.671875 1.453125 0.109375 2.84375 0.109375 C 4.234375 0.109375 5.296875 -0.578125 5.671875 -1.90625 L 5.6875 -1.984375 L 4.234375 -1.984375 L 4.203125 -1.90625 C 3.984375 -1.296875 3.5625 -0.953125 2.984375 -0.953125 C 2.46875 -0.953125 2.03125 -1.3125 2.03125 -2.28125 C 2.03125 -3.8125 2.78125 -4.609375 3.625 -4.609375 C 4.21875 -4.609375 4.53125 -4.328125 4.546875 -3.734375 L 4.546875 -3.65625 L 6 -3.65625 L 6 -3.734375 C 6.09375 -4.828125 5.34375 -5.671875 3.75 -5.671875 Z M 3.75 -5.671875 "/></g></g></g><g fill="#e4e2dd" fill-opacity="1"><g transform="translate(189.815658, 150.499718)"><g><path d="M 3.0625 -5.671875 C 1.84375 -5.671875 0.703125 -4.96875 0.703125 -3.703125 C 0.703125 -2.875 1.328125 -2.46875 2.40625 -2.203125 C 2.984375 -2.046875 3.203125 -1.796875 3.203125 -1.546875 C 3.203125 -1.1875 2.84375 -0.953125 2.40625 -0.953125 C 1.96875 -0.953125 1.578125 -1.171875 1.578125 -1.703125 L 0.125 -1.703125 C -0.015625 -0.453125 0.90625 0.109375 2.25 0.109375 C 3.546875 0.109375 4.765625 -0.546875 4.765625 -1.84375 C 4.765625 -2.546875 4.328125 -3.078125 3.3125 -3.328125 C 2.53125 -3.515625 2.265625 -3.71875 2.265625 -4.015625 C 2.265625 -4.40625 2.546875 -4.609375 2.921875 -4.609375 C 3.40625 -4.609375 3.59375 -4.3125 3.578125 -3.84375 L 5.015625 -3.84375 C 5.078125 -4.875 4.53125 -5.671875 3.0625 -5.671875 Z M 3.0625 -5.671875 "/></g></g></g></svg>